<svg id="SvgjsSvg1001" width="288" height="288" xmlns="http://www.w3.org/2000/svg" version="1.1" xmlns:xlink="http://www.w3.org/1999/xlink" xmlns:svgjs="http://svgjs.com/svgjs"><defs id="SvgjsDefs1002"></defs><g id="SvgjsG1008" transform="matrix(0.9167,0,0,0.9167,11.995199364471432,11.995243215942395)"><svg xmlns="http://www.w3.org/2000/svg" enable-background="new 0 0 281.232 281.232" viewBox="0 0 281.232 281.232" width="288" height="288"><path fill="#efb6b2" d="M231.634 79.976v-.751C231.634 30.181 192.772 0 137.32 0c-31.987 0-57.415 9.018-77.784 22.98-11.841 8.115-12.907 25.906-4.232 37.355l6.326 8.349c8.675 11.444 24.209 12.532 36.784 5.586 11.46-6.331 23.083-9.758 34-9.758 18.107 0 28.294 7.919 28.294 20.75v.375c0 16.225-15.469 39.411-59.231 43.181l-1.507 1.697c-.832.936.218 13.212 2.339 27.413l1.741 11.58c2.121 14.201 14.065 25.71 26.668 25.71s23.839-5.406 25.08-12.069c1.256-6.668 2.268-12.075 2.268-12.075C199.935 160.882 231.634 127.513 231.634 79.976zM118.42 217.095c-14.359 0-25.993 11.64-25.993 25.999v12.14c0 14.359 11.64 25.999 25.993 25.999h22.322c14.359 0 25.999-11.64 25.999-25.999v-12.14c0-14.359-11.645-25.999-25.999-25.999H118.42z" class="color010002 svgShape"></path></svg></g></svg>