<svg id="SvgjsSvg1001" width="288" height="288" xmlns="http://www.w3.org/2000/svg" version="1.1" xmlns:xlink="http://www.w3.org/1999/xlink" xmlns:svgjs="http://svgjs.com/svgjs"><defs id="SvgjsDefs1002"></defs><g id="SvgjsG1008" transform="matrix(0.9167,0,0,0.9167,11.995201151895543,11.995201271057141)"><svg xmlns="http://www.w3.org/2000/svg" enable-background="new 0 0 480.008 480.008" viewBox="0 0 480.008 480.008" width="288" height="288"><path d="M240.212 68.208c-80.999-.111-147.855 63.315-152.008 144.208-2.889 55.668 24.25 108.622 71.128 138.784 15.514 10.298 24.791 27.723 24.672 46.344V448c0 .16.08.296.088.456.05.543.157 1.079.32 1.6.112.521.281 1.028.504 1.512.04.149.088.296.144.44l13.712 24c1.432 2.48 4.08 4.006 6.944 4h68.576c2.864.006 5.512-1.52 6.944-4l13.712-24c.056-.144.104-.291.144-.44.223-.484.392-.991.504-1.512.163-.521.27-1.057.32-1.6 0-.16.088-.296.088-.456v-50.472c-.123-18.847 9.379-36.453 25.2-46.696 44.022-28.807 70.623-77.807 70.8-130.416C392.119 136.469 324.159 68.323 240.212 68.208zM269.652 464h-59.296l-4.568-8h68.432L269.652 464zM280.004 440h-80v-16h80V440zM280.004 397.528V408h-80v-10.456c0-1.872-.2-3.704-.336-5.544h80.68C280.204 393.84 280.004 395.664 280.004 397.528zM312.532 337.384c-13.956 9.042-24.276 22.716-29.144 38.616h-35.384V255.048l38.28-32.088c3.387-2.839 3.831-7.885.992-11.272s-7.885-3.831-11.272-.992l-36 30.168-36-30.168c-3.387-2.839-8.433-2.395-11.272.992-2.839 3.387-2.395 8.433.992 11.272l38.28 32.08V376h-35.32c-4.707-15.789-14.901-29.377-28.744-38.312-42.036-27.062-66.362-74.562-63.752-124.488 3.859-70.309 60.323-126.279 130.664-129.52 36.868-1.519 72.739 12.188 99.2 37.904 26.94 25.801 42.107 61.53 41.952 98.832C375.855 267.596 352.007 311.544 312.532 337.384zM48.004 208h-32c-4.418 0-8 3.582-8 8s3.582 8 8 8h32c4.418 0 8-3.582 8-8S52.422 208 48.004 208zM109.892 74.576L85.66 50.344c-3.178-3.07-8.242-2.982-11.312.196-2.994 3.1-2.994 8.015 0 11.116L98.58 85.888c3.178 3.069 8.243 2.981 11.312-.197C112.886 82.591 112.886 77.676 109.892 74.576zM240.004 0c-4.418 0-8 3.582-8 8v32c0 4.418 3.582 8 8 8s8-3.582 8-8V8C248.004 3.582 244.422 0 240.004 0zM405.464 50.344c-3.1-2.995-8.016-2.995-11.116 0l-24.232 24.232c-3.124 3.125-3.123 8.19.002 11.314 1.5 1.499 3.534 2.342 5.654 2.342 2.122 0 4.156-.844 5.656-2.344l24.232-24.232C408.73 58.478 408.642 53.414 405.464 50.344zM464.004 208h-32c-4.418 0-8 3.582-8 8s3.582 8 8 8h32c4.418 0 8-3.582 8-8S468.422 208 464.004 208zM405.66 370.344l-24.232-24.232c-3.178-3.07-8.242-2.982-11.312.196-2.995 3.1-2.995 8.016 0 11.116l24.232 24.232c3.178 3.07 8.242 2.982 11.312-.196C408.655 378.36 408.655 373.444 405.66 370.344zM109.696 346.112c-3.1-2.994-8.015-2.994-11.116 0l-24.232 24.232c-3.124 3.125-3.123 8.19.002 11.314 1.5 1.499 3.534 2.342 5.654 2.342 2.122 0 4.156-.844 5.656-2.344l24.232-24.232C112.962 354.246 112.874 349.182 109.696 346.112z" fill="#efb6b2" class="color000 svgShape"></path></svg></g></svg>